<?xml version="1.0"?>
<svg xmlns="http://www.w3.org/2000/svg" xmlns:xlink="http://www.w3.org/1999/xlink" xmlns:svgjs="http://svgjs.com/svgjs" version="1.1" width="512" height="512" x="0" y="0" viewBox="0 0 512 512" style="enable-background:new 0 0 512 512" xml:space="preserve" class=""><g transform="matrix(1,0,0,1,65,0)"><path xmlns="http://www.w3.org/2000/svg" d="m26.667969 298.667969h94.226562l-19.453125 183.914062c-.085937.554688-.109375 2.195313-.109375 2.75 0 14.699219 11.96875 26.667969 26.667969 26.667969 8.363281 0 16.339844-4.011719 21.632812-11.113281l186.367188-266.21875c3.433594-4.589844 5.332031-10.261719 5.332031-16 0-14.699219-11.964843-26.667969-26.664062-26.667969h-115.328125l19.199218-162.199219c.0625-.617187.105469-2.515625.105469-3.132812.023438-14.699219-11.945312-26.667969-26.644531-26.667969-8.363281 0-16.339844 4.011719-21.800781 11.328125l-164.867188 244.671875c-3.433593 4.585938-5.332031 10.261719-5.332031 16 0 14.699219 11.96875 26.667969 26.667969 26.667969zm0 0" fill="#858585" data-original="#000000" style="" class=""/></g></svg>
