<?xml version="1.0" encoding="utf-8"?><svg width="35" height="22" fill="none" xmlns="http://www.w3.org/2000/svg" viewBox="0 0 35 22"><path d="M.77 4.856A4.472 4.472 0 015.24.385h16.61a4.472 4.472 0 014.471 4.471v12.138a4.472 4.472 0 01-4.472 4.472H5.241a4.472 4.472 0 01-4.472-4.472V4.856z" fill="url(#apaint0_linear)"/><path d="M18.337 10.925l7.994 4.703V6.222l-7.994 4.703z" fill="#000" fill-opacity=".4"/><path d="M18.337 10.925l12.92 7.6c1.49.877 3.37-.198 3.37-1.927V5.252c0-1.73-1.88-2.804-3.37-1.927l-12.92 7.6z" fill="url(#apaint1_linear)" fill-opacity=".7"/><path d="M18.337 10.925l-7.187 4.15a1.597 1.597 0 01-2.396-1.384V8.16c0-1.23 1.331-1.998 2.396-1.383l7.187 4.149z" fill="#fff"/><defs><linearGradient id="apaint0_linear" x1="2.796" y1="21.466" x2="26.391" y2="2.249" gradientUnits="userSpaceOnUse"><stop stop-color="#EF6907"/><stop offset="1" stop-color="#FF9D43"/></linearGradient><linearGradient id="apaint1_linear" x1="34.627" y1="4.268" x2="23.502" y2="21.311" gradientUnits="userSpaceOnUse"><stop stop-color="#EF6907"/><stop offset="1" stop-color="#FF9D43"/></linearGradient></defs></svg>